<svg width="48" height="48" viewBox="0 0 48 48" fill="none" xmlns="http://www.w3.org/2000/svg">
<rect width="48" height="48" fill="#0B0C0C"/>
<path d="M24.224 17.238L19.36 30.5H16.13L11.266 17.238H14.116L17.764 27.783L21.393 17.238H24.224ZM33.3428 23.698C34.0901 23.8373 34.7045 24.211 35.1858 24.819C35.6671 25.427 35.9078 26.1237 35.9078 26.909C35.9078 27.6183 35.7305 28.2453 35.3758 28.79C35.0338 29.322 34.5335 29.74 33.8748 30.044C33.2161 30.348 32.4371 30.5 31.5378 30.5H25.8188V17.238H31.2908C32.1901 17.238 32.9628 17.3837 33.6088 17.675C34.2675 17.9663 34.7615 18.3717 35.0908 18.891C35.4328 19.4103 35.6038 19.9993 35.6038 20.658C35.6038 21.4307 35.3948 22.0767 34.9768 22.596C34.5715 23.1153 34.0268 23.4827 33.3428 23.698ZM28.4788 22.71H30.9108C31.5441 22.71 32.0318 22.5707 32.3738 22.292C32.7158 22.0007 32.8868 21.589 32.8868 21.057C32.8868 20.525 32.7158 20.1133 32.3738 19.822C32.0318 19.5307 31.5441 19.385 30.9108 19.385H28.4788V22.71ZM31.1578 28.334C31.8038 28.334 32.3041 28.182 32.6588 27.878C33.0261 27.574 33.2098 27.1433 33.2098 26.586C33.2098 26.016 33.0198 25.5727 32.6398 25.256C32.2598 24.9267 31.7468 24.762 31.1008 24.762H28.4788V28.334H31.1578Z" fill="#E9EAEC"/>
</svg>
